<svg version="1.1" xmlns="http://www.w3.org/2000/svg" xmlns:xlink="http://www.w3.org/1999/xlink" width="61.901" height="60.039"  viewBox="0,0,256,256"><g fill-opacity="0" fill="#dddddd" fill-rule="nonzero" stroke="none" stroke-width="1" stroke-linecap="butt" stroke-linejoin="miter" stroke-miterlimit="10" stroke-dasharray="" stroke-dashoffset="0" font-family="none" font-weight="none" font-size="none" text-anchor="none" style="mix-blend-mode: normal"><path d="M0,256v-256h256v256z" id="bgRectangle"></path></g><g fill="#0181f5" fill-rule="nonzero" stroke="none" stroke-width="1" stroke-linecap="butt" stroke-linejoin="miter" stroke-miterlimit="10" stroke-dasharray="" stroke-dashoffset="0" font-family="none" font-weight="none" font-size="none" text-anchor="none" style="mix-blend-mode: normal"><g transform="scale(10.66667,10.66667)"><path d="M20,17h-16c-0.6,0 -1,-0.4 -1,-1v-10c0,-0.6 0.4,-1 1,-1h16c0.6,0 1,0.4 1,1v10c0,0.6 -0.4,1 -1,1z" opacity="0.3"></path><path d="M20,18h-16c-1.1,0 -2,-0.9 -2,-2v-10c0,-1.1 0.9,-2 2,-2h16c1.1,0 2,0.9 2,2v10c0,1.1 -0.9,2 -2,2zM4,6v10h16v-10zM0,18h24v2h-24z"></path><path d="M11,8l3.6,3.4l-1.7,0.1l-0.6,0.3l-1.3,1.2v-5"></path><path transform="translate(-3.85985,6.136) rotate(-23.386)" d="M12.4,10.8h1v3.3h-1z"></path></g></g></svg>