<svg version="1.1" xmlns="http://www.w3.org/2000/svg" xmlns:xlink="http://www.w3.org/1999/xlink" width="61.901" height="60.039" viewBox="0,0,256,256"><g fill="#0181f5" fill-rule="nonzero" stroke="none" stroke-width="1" stroke-linecap="butt" stroke-linejoin="miter" stroke-miterlimit="10" stroke-dasharray="" stroke-dashoffset="0" font-family="none" font-weight="none" font-size="none" text-anchor="none" style="mix-blend-mode: normal"><g transform="scale(10.66667,10.66667)"><path d="M4,12h5c0.552,0 1,-0.448 1,-1v-7c0,-0.552 -0.448,-1 -1,-1h-5c-0.552,0 -1,0.448 -1,1v7c0,0.552 0.448,1 1,1z" opacity="0.3"></path><path d="M15,8h5c0.552,0 1,-0.448 1,-1v-3c0,-0.552 -0.448,-1 -1,-1h-5c-0.552,0 -1,0.448 -1,1v3c0,0.552 0.448,1 1,1z" opacity="0.3"></path><path d="M4,21h5c0.552,0 1,-0.448 1,-1v-3c0,-0.552 -0.448,-1 -1,-1h-5c-0.552,0 -1,0.448 -1,1v3c0,0.552 0.448,1 1,1z" opacity="0.3"></path><path d="M15,21h5c0.552,0 1,-0.448 1,-1v-7c0,-0.552 -0.448,-1 -1,-1h-5c-0.552,0 -1,0.448 -1,1v7c0,0.552 0.448,1 1,1z" opacity="0.3"></path><path d="M9,13h-5c-1.103,0 -2,-0.897 -2,-2v-7c0,-1.103 0.897,-2 2,-2h5c1.103,0 2,0.897 2,2v7c0,1.103 -0.897,2 -2,2zM4,4v7h5v-7z"></path><path d="M20,9h-5c-1.103,0 -2,-0.897 -2,-2v-3c0,-1.103 0.897,-2 2,-2h5c1.103,0 2,0.897 2,2v3c0,1.103 -0.897,2 -2,2zM15,4v3h5v-3z"></path><path d="M9,22h-5c-1.103,0 -2,-0.897 -2,-2v-3c0,-1.103 0.897,-2 2,-2h5c1.103,0 2,0.897 2,2v3c0,1.103 -0.897,2 -2,2zM4,17v3h5v-3z"></path><path d="M20,22h-5c-1.103,0 -2,-0.897 -2,-2v-7c0,-1.103 0.897,-2 2,-2h5c1.103,0 2,0.897 2,2v7c0,1.103 -0.897,2 -2,2zM15,13v7h5v-7z"></path></g></g></svg>