<svg version="1.1" xmlns="http://www.w3.org/2000/svg" xmlns:xlink="http://www.w3.org/1999/xlink" width="61.901" height="60.039" viewBox="0,0,256,256"><g fill="#0181f5" fill-rule="nonzero" stroke="none" stroke-width="1" stroke-linecap="butt" stroke-linejoin="miter" stroke-miterlimit="10" stroke-dasharray="" stroke-dashoffset="0" font-family="none" font-weight="none" font-size="none" text-anchor="none" style="mix-blend-mode: normal"><g transform="scale(10.66667,10.66667)"><path d="M6,2h12v20h-12z" opacity="0.3"></path><path d="M19,20.5v-17c0,-1.38 -1.12,-2.5 -2.5,-2.5h-9c-1.38,0 -2.5,1.12 -2.5,2.5v17c0,1.38 1.12,2.5 2.5,2.5h9c1.38,0 2.5,-1.12 2.5,-2.5zM17,21h-10v-18h1.625l0.724,1.447c0.169,0.339 0.515,0.553 0.894,0.553h3.472c0.379,0 0.725,-0.214 0.894,-0.553l0.724,-1.447h1.667z"></path></g></g></svg>